<svg width="30" height="30" viewBox="0 0 30 30" fill="none" xmlns="http://www.w3.org/2000/svg">
<g id="Iconly/Curved/Volume Up">
<g id="Volume Up">
<path id="Stroke 1" d="M24.2949 7.21802C27.412 11.868 27.4211 18.0044 24.2949 22.6646" stroke="#FF8C00" stroke-width="1.5" stroke-linecap="round" stroke-linejoin="round"/>
<path id="Stroke 3" d="M21.2363 10.2715C22.8386 13.1749 22.8386 16.7181 21.2363 19.6113" stroke="#FF8C00" stroke-width="1.5" stroke-linecap="round" stroke-linejoin="round"/>
<path id="Stroke 5" fill-rule="evenodd" clip-rule="evenodd" d="M3.35284 14.9412C3.34943 16.4991 3.35284 18.3264 4.63921 19.4185C5.92671 20.5116 6.94716 20.0605 8.61193 20.6082C10.2778 21.1571 12.6108 24.5412 15.1881 23.0128C16.5812 22.023 17.2381 20.1548 17.2381 14.9412C17.2381 9.72756 16.6108 7.87983 15.1881 6.8696C12.6108 5.34233 10.2778 8.72642 8.61193 9.27415C6.94716 9.82301 5.92671 9.37187 4.63921 10.4639C3.35284 11.556 3.34943 13.3832 3.35284 14.9412Z" stroke="#130F26" stroke-width="1.5" stroke-linecap="round" stroke-linejoin="round"/>
</g>
</g>
</svg>
