<svg width="33" height="34" viewBox="0 0 33 34" fill="none" xmlns="http://www.w3.org/2000/svg">
<path d="M20.9523 19.8212H19.899L19.5257 19.4499C21.1257 17.5249 21.9523 14.8987 21.499 12.1074C20.8723 8.28492 17.779 5.23242 14.0457 4.76492C8.40567 4.04992 3.67234 8.94492 4.35234 14.7612C4.80567 18.6112 7.76567 21.8012 11.4723 22.4474C14.179 22.9149 16.7257 22.0624 18.5923 20.4124L18.9523 20.7974V21.8837L24.6323 27.7274C25.179 28.2912 26.059 28.2912 26.6057 27.7274L26.619 27.7137C27.1657 27.1499 27.1657 26.2424 26.619 25.6787L20.9523 19.8212ZM12.9523 19.8212C9.63234 19.8212 6.95234 17.0574 6.95234 13.6337C6.95234 10.2099 9.63234 7.44617 12.9523 7.44617C16.2723 7.44617 18.9523 10.2099 18.9523 13.6337C18.9523 17.0574 16.2723 19.8212 12.9523 19.8212Z" fill="#F23F42"/>
</svg>
